<svg xmlns="http://www.w3.org/2000/svg" viewBox="0 0 1601.9219 290.0365" height="290.036" width="1601.922"><path d="M137.922 289.803c-7.946-1.452-17.328-4.047-23.138-6.4-25.405-10.289-45.63-33.125-54.022-60.998-2.22-7.376-2.264-8.534-2.625-70-.27-45.978-.05-63.954.83-68 1.889-8.688 6.857-17.92 12.943-24.055 9.344-9.418 17.758-12 21.535-6.608 1.975 2.819 1.86 6.136-.437 12.698-5.294 15.12-5.39 16.437-5.815 79.535-.444 65.91-.424 66.165 6.324 80.195 4.087 8.497 13.633 19.2 22.19 24.88 3.094 2.054 9.471 5.102 14.17 6.774 7.965 2.832 9.494 3.039 22.545 3.041 10.685.002 15.42-.428 20-1.818 24.67-7.488 41.813-27.528 45.463-53.142 1.385-9.721 1.348-124.1-.043-134.178-1.493-10.812-5.34-21.894-11.07-31.889-2.668-4.651-4.85-9.702-4.85-11.223 0-3.81 2.426-6.925 6.003-7.71 4.108-.903 8.325 1.866 16.727 10.986 10.804 11.725 18.27 25.77 21.806 41.014 1.505 6.49 1.55 46.171.176 157-.229 18.464 1.072 25.403 7.43 39.632 2.122 4.748 3.858 9.55 3.858 10.673 0 1.123-1.207 3.475-2.682 5.228-2.444 2.905-3.087 3.147-7.287 2.744-9.105-.875-23.984-10.428-29.183-18.737l-1.538-2.46-6.97 5.167c-8.738 6.478-21.447 12.602-31.84 15.342-5.99 1.579-11.769 2.191-23 2.437-8.25.18-16.125.123-17.5-.128z" fill="#ccacb5"/><path d="M35.214 268.39c-3.842-1.547-15.83-14.189-21.048-22.195-2.763-4.24-6.427-11.08-8.142-15.198C-.37 215.636-.2 218.127.125 144.7l.297-66.795 2.83-9.5c9.885-33.178 32.834-56.12 65.67-65.648C77.585.243 79.876 0 94.922 0c15.104 0 17.303.235 26 2.783 33.22 9.73 56.713 33.436 65.815 66.41l2.681 9.712-.006 62c-.006 58.059-.125 62.35-1.886 67.5-4.33 12.662-11.8 22.967-19.197 26.477-6.195 2.94-13.407-1.34-13.407-7.955 0-1.4.864-5.666 1.92-9.478 3.788-13.667 4.233-23.139 3.877-82.544-.329-55.087-.411-57.186-2.446-62.548-8.517-22.448-24-36.783-45.811-42.414-7.851-2.026-27.132-2.042-35.08-.028-17.896 4.534-33.698 17.014-41.375 32.676-7.419 15.136-7.198 12.207-6.865 90.988l.297 70.326 2.357 7c2.432 7.222 8.468 19.727 12.066 25 2.92 4.281 2.69 8.858-.575 11.427-2.83 2.227-4.594 2.458-8.073 1.057zm309.089-44.947c-24.05-3.7-43.68-20.518-52-44.548-2.365-6.827-2.77-9.591-2.783-18.99-.018-12.056 1.486-18.761 6.379-28.454 8.523-16.886 23.452-29.314 41.575-34.615 9.47-2.77 23.98-2.332 33.938 1.024 19.802 6.672 34.048 20.709 41.317 40.71 2.397 6.597 2.664 8.694 2.652 20.835-.014 15.416-1.528 21.294-8.548 33.21-12.583 21.357-39.105 34.433-62.53 30.828zm30.865-20.882c18.458-8.905 26.187-27.329 24.358-47.381-1.606-17.61-12.72-33.608-28.604-41.178-11.524-5.016-23.914-5.584-35.468-.303-9.11 4.266-15.832 9.883-20.829 17.405-6.24 9.392-8.703 17.201-8.703 27.588 0 14.581 2.512 25.432 12.89 35.81 10.82 10.818 20.723 14.015 35.61 13.596 8.92-.252 14.728-2.633 20.746-5.537zm89.534 20.847c-10.958-1.924-23.71-10.907-29.492-20.775-8.491-14.489-8.233-33.289.647-47.128 12.04-18.762 34.868-25.791 53.753-16.552 6.234 3.05 16.312 11.912 16.312 14.344 0 .93-2.004 3.658-4.454 6.063l-4.454 4.37-4.796-5.102c-6.248-6.648-11.855-9.173-20.432-9.201-8.664-.029-15.79 3.505-21.02 10.426-3.802 5.03-6.844 13.721-6.844 19.552 0 5.83 3.042 14.522 6.844 19.552 5.23 6.92 12.356 10.455 21.02 10.426 8.576-.028 14.212-2.568 20.287-9.142 3.39-3.667 5.058-4.809 6.121-4.189 2.82 1.645 8.728 7.302 8.728 8.358 0 4.016-11.49 13.545-20.275 16.815-6.385 2.375-15.62 3.295-21.945 2.183zm579.22-.137c-12.063-1.976-20.752-8.863-25.31-20.06-2.016-4.957-2.18-7.296-2.49-35.52l-.332-30.215 2.396-.601c1.318-.331 4.385-.46 6.816-.286l4.42.316.538 28c.357 18.603.945 28.946 1.75 30.818 3.802 8.83 11.1 13.682 20.577 13.682 8.643 0 14.8-3.73 18.982-11.5 2.034-3.78 2.17-5.554 2.46-32.245l.307-28.246 2.273-.57c1.25-.314 4.262-.429 6.693-.255l4.42.316v85l-6.257.298c-5.907.281-6.31.155-7.225-2.25-1.182-3.108-1.107-3.106-5.458-.154-1.94 1.318-6.385 2.893-9.876 3.5-7.065 1.23-6.993 1.23-14.684-.029zm-352.75-1.383c-8.337-1.81-15.232-5.714-21.15-11.971-8.006-8.465-12.1-18.958-12.1-31.012 0-27.373 22.358-47.317 48.806-43.537 19.912 2.845 33.86 17.5 36.207 38.037 1.434 12.545 1.283 46.304-.213 47.8-1.31 1.31-10.584 1.625-12.472.424-.83-.529-1.27-8.166-1.51-26.235-.327-24.672-.417-25.648-2.782-30.438-5.026-10.18-13.662-15.557-24.964-15.546-7.514.008-12.211 1.452-17.195 5.285-12.86 9.892-14.678 31.702-3.685 44.191 8.51 9.669 21.214 12.22 34.457 6.922 3.57-1.428 6.662-2.426 6.87-2.217.764.764-3.817 14.365-5.394 16.013-.908.95-4.495 2.16-8.125 2.743-7.938 1.274-8.897 1.247-16.75-.459zm560.75.408c-11.834-2.027-23.416-9.917-29.3-19.96-5.04-8.6-5.7-13.812-5.7-44.931 0-32.316.676-37.004 6.586-45.651 4.182-6.119 8.933-9.614 16.987-12.5 5.472-1.96 7.883-2.118 31.427-2.067l25.5.055.296 6.022c.411 8.366-.291 8.67-18.796 8.136-29.812-.86-35.074.023-41.317 6.934-5.88 6.508-6.183 8.475-6.183 40.07 0 27.63.07 28.654 2.3 33.5 1.267 2.75 3.742 6.519 5.5 8.373 10.454 11.021 30.662 10.907 40.438-.227 5.453-6.21 6.602-9.369 7.07-19.429.414-8.864.287-9.58-2.799-15.849-3.35-6.803-8.505-11.526-15.325-14.041-5.733-2.114-16.502-1.56-23.184 1.193-3.3 1.36-6.113 2.474-6.25 2.476-1.675.031 3.618-15.854 5.643-16.938 3.728-1.995 14.97-3.123 21.175-2.124 16.45 2.65 28.509 12.99 33.955 29.12 2.854 8.455 2.452 23.508-.854 31.947-7.258 18.526-26.979 29.351-47.17 25.891zm98.25-.408c-8.337-1.81-15.232-5.714-21.15-11.971-8.006-8.465-12.1-18.958-12.1-31.012 0-27.373 22.358-47.317 48.806-43.537 19.912 2.845 33.86 17.5 36.207 38.037 1.434 12.545 1.283 46.304-.213 47.8-1.31 1.31-10.584 1.625-12.472.424-.831-.529-1.27-8.166-1.51-26.235-.327-24.672-.417-25.648-2.782-30.438-5.026-10.18-13.662-15.557-24.964-15.546-7.514.008-12.211 1.452-17.195 5.285-12.86 9.892-14.678 31.702-3.685 44.191 8.51 9.669 21.214 12.22 34.457 6.922 3.57-1.428 6.662-2.426 6.87-2.217.764.764-3.817 14.365-5.394 16.013-.908.95-4.495 2.16-8.125 2.743-7.938 1.274-8.897 1.247-16.75-.459zm199 0c-8.337-1.81-15.232-5.714-21.15-11.971-5.654-5.978-8.51-11.145-10.605-19.192-5.388-20.686 4.237-43.191 22.002-51.446 20.879-9.701 46.185-2.08 56.337 16.967 5.256 9.86 6.134 15.894 6.15 42.251l.016 23.593-6.25.168c-3.438.092-6.777-.179-7.422-.603-.83-.546-1.27-8.212-1.51-26.26-.327-24.673-.416-25.649-2.782-30.439-5.026-10.18-13.662-15.557-24.964-15.546-7.514.008-12.211 1.452-17.195 5.285-12.86 9.892-14.678 31.702-3.685 44.191 8.51 9.669 21.214 12.22 34.457 6.922 3.57-1.428 6.662-2.426 6.87-2.217.765.764-3.817 14.365-5.393 16.013-.908.95-4.495 2.16-8.126 2.743-7.938 1.274-8.896 1.247-16.749-.459zm-1026.83-.832c-.306-.795-.412-14.88-.238-31.298l.318-29.853 2.635-5.62c6.847-14.603 20.472-21.652 36.322-18.792 7.329 1.323 10.518 2.926 16.157 8.124l4.386 4.043 4.56-4.204c7.554-6.963 17.198-9.778 27.702-8.086 11.413 1.838 19.604 8.016 24.407 18.409l2.83 6.126v62h-13l-.5-29.5c-.482-28.5-.577-29.636-2.803-33.517-3.223-5.623-8.156-8.732-14.715-9.276-7.077-.587-9.693.162-14.112 4.042-6.56 5.76-6.788 6.976-7.358 39.25l-.511 29h-13l-.5-29.5c-.495-29.166-.528-29.548-2.99-33.847-5.903-10.311-20.722-12.502-29.35-4.338-6.056 5.73-6.116 6.075-6.66 38.186l-.5 29.5-6.263.298c-4.743.226-6.398-.053-6.818-1.147zm240.996-.007c-.306-.8-.404-14.208-.216-29.798.317-26.382.492-28.718 2.523-33.723 6.164-15.193 17.084-22.428 33.777-22.38 18.07.053 30.773 10.361 34.538 28.028.578 2.714.891 16.232.735 31.73l-.273 27h-13l-.5-28.501c-.473-26.962-.62-28.723-2.706-32.624-4.402-8.23-11.427-11.896-21.405-11.174-7.608.55-13.26 4.336-16.835 11.276-2.518 4.89-2.561 5.361-3.054 32.991l-.5 28.03-6.263.299c-4.756.226-6.397-.051-6.82-1.155zm176.677.225c-12.412-2.06-23.189-9.8-28.51-20.477-5.281-10.596-5.628-14.553-5.344-61.094l.26-42.798 6.338-.3c3.811-.18 6.9.167 7.75.872 1.175.976 1.413 8.098 1.413 42.34 0 33.619.28 42.26 1.525 47.128 2.138 8.357 5.883 13.4 12.41 16.71 5.296 2.685 5.83 2.75 22.744 2.75h17.32v-53.878c0-45.19.228-54.066 1.413-55.05.85-.705 3.939-1.053 7.75-.872l6.338.3.521 54.5c.287 29.975.625 54.612.75 54.75.126.137 1.767.25 3.647.25 6.149 0 6.582.526 6.582 8 0 5.265-.355 6.922-1.582 7.393-2.446.938-55.232.487-61.325-.524zm161.213-.512c-.346-.904 2.875-19.367 7.159-41.03 7.195-36.385 8-39.613 10.563-42.357 2.224-2.381 3.606-2.97 6.973-2.97 3.413 0 4.799.608 7.404 3.25 2.827 2.866 4.05 6.211 10.36 28.328 8.482 29.735 8.957 31.1 10.343 29.713.57-.568 4.39-12.612 8.49-26.763 4.1-14.15 8.115-27.006 8.922-28.568 3.95-7.637 14.663-8.092 18.572-.788.61 1.139 4.618 19.903 8.907 41.7 5.634 28.621 7.48 39.832 6.65 40.363-1.947 1.244-12.323.868-13.387-.485-.54-.687-3.295-14.953-6.123-31.7-4.746-28.111-6.053-33.638-7.423-31.387-.28.46-3.516 12.015-7.19 25.677-7.614 28.318-8.904 32.311-11.303 34.975-4.55 5.053-11.677 3.638-15.056-2.99-1.073-2.103-4.943-15.075-8.6-28.825-7.281-27.374-8.23-30.252-9.535-28.902-.48.496-3.2 14.627-6.044 31.402-2.844 16.775-5.635 31.063-6.202 31.75-.613.743-3.43 1.25-6.94 1.25-4.559 0-6.053-.375-6.54-1.643zm315.696.644c-.676-.418-.989-3.174-.804-7.092.282-5.996.463-6.428 2.802-6.705 4.558-.541 7.725-2.306 9.008-5.021.788-1.667 1.54-9.876 1.986-21.683.836-22.119 2.203-27.166 9.582-35.373 7.692-8.556 19.45-12.298 31.675-10.081 11.525 2.09 19.123 7.614 24.05 17.487 4.146 8.306 4.821 14.757 4.497 42.967l-.298 26h-13l-.5-28c-.49-27.396-.554-28.107-3-32.949-3.68-7.284-8.644-10.825-15.91-11.35-7.28-.527-11.78.893-16.071 5.072-5.739 5.587-6.348 8.205-7.032 30.227-.674 21.688-1.32 24.612-6.597 29.89-1.59 1.59-4.434 3.542-6.32 4.339-4.34 1.833-12.616 3.17-14.068 2.272z" fill="#300e24"/></svg>